<svg version="1" xmlns="http://www.w3.org/2000/svg" width="1706.667" height="1706.667" viewBox="0 0 1280.000000 1280.000000"><path d="M207.6 45c-.4 4.5-.5 8.4-.3 8.6.3.3 5.8.7 12.3 1 6.6.2 13.3.6 14.9.8 1.7.3 5.3.8 8 1.1 2.8.4 6.8 1.1 9 1.7 2.2.6 5 1.2 6.2 1.4 1.3.3 5.5 1.6 9.5 3 24 8.7 39.4 26 45.7 51.6 4.8 19.7 4.9 33.4.2 59.8-1.8 10.2-3.5 19.6-3.6 21-.2 1.4-2.4 14.9-5 30s-4.9 28.8-5.1 30.5c-.2 1.6-.8 5.2-1.3 8-.6 2.7-1.3 6.6-1.5 8.5-.6 3.5-1 6.1-2.2 13-.3 1.9-.8 4.8-1.1 6.5-.2 1.6-.6 4.1-.9 5.5-.2 1.4-1.1 6.8-1.9 12-2.3 13.9-2.5 14.9-3.6 21.5-.6 3.3-1.3 7.3-1.6 9-.2 1.6-.6 4.1-.9 5.5-.2 1.4-.9 5.2-1.4 8.5-.5 3.3-1.2 7.3-1.5 9-.8 4.2-2.3 13.3-2.9 17.5-.3 1.9-.8 4.6-1 6-.3 1.4-.7 4.1-1 6-.3 1.9-.8 4.6-1.1 6-.3 1.4-.8 4.5-1.1 7-.3 2.5-.9 6.1-1.4 8-.5 1.9-1.1 5.3-1.4 7.5-.8 6.5-1.6 11.7-2.6 16.5-.5 2.5-1.2 6.6-1.5 9.2-.3 2.6-.8 5.3-1 6-.3.7-.7 2.6-.9 4.3-.2 1.6-.6 4.6-1 6.5-.3 1.9-.7 4.8-1 6.5-.2 1.6-1.3 8.2-2.5 14.5-1.1 6.3-2.3 13.3-2.6 15.5-.2 2.2-.7 5.1-1 6.5-.5 2.4-.8 4.3-2 11.5-.3 1.6-1.7 10-3.1 18.5-1.4 8.5-2.8 16.8-3 18.5-.2 1.6-.6 4.1-.9 5.5-.3 1.4-.7 3.6-1 5-.7 4.1-3.6 21.3-4 24-.2 1.4-1.1 6.5-1.9 11.5-.9 4.9-1.8 10.8-2.1 13-.4 2.2-.8 5.1-1.1 6.5-.4 2.9-16.3 97.2-16.9 101-.2 1.4-1.1 6.8-2 12-.9 5.2-1.8 10.8-2.1 12.5-.2 1.6-.7 4.2-1 5.7-.3 1.5-.7 3.9-.9 5.5-.4 3-1.2 8.2-2 12.3-.3 1.4-.7 3.8-.9 5.5-.3 1.6-1.2 7.3-2.1 12.5-.9 5.2-1.8 10.8-2.1 12.5-.2 1.6-.6 4.1-.9 5.5-.3 1.4-.7 4.1-1 6-.3 1.9-1 6-1.5 9s-1.2 7.1-1.5 9c-.3 1.9-.7 4.6-1 6-.3 1.4-.7 4.1-1 6-.4 1.9-5.6 33.2-11.7 69.5-6 36.3-11.2 67.3-11.4 69-.2 1.6-.9 5.7-1.5 9s-1.3 7.3-1.6 9c-.2 1.6-1.3 7.9-2.3 14-1 6-2.1 12.3-2.3 14-.3 1.6-1.2 7-2.1 12-.8 4.9-1.8 10.8-2.1 13-.4 2.2-1.7 10.5-3.1 18.5-1.3 8-2.7 16.1-3 18-.2 1.9-.7 4.6-1 6-.3 1.3-.7 4-1 6-.4 3.1-2.2 13.8-2.8 16.5-.2.5-.6 3.2-1 6-.4 2.7-1.1 7.2-1.6 10-.5 2.7-1.2 6.6-1.5 8.5-.3 1.9-1 6-1.5 9-1.4 8-1.9 11-2.5 15.5-.9 5.7-4.4 10.4-17.5 23.5-9.9 10-15.9 14.8-25.5 20.7-8.2 5.1-26.7 12.5-34.5 13.9-10.4 1.9-14.4 2.4-20.9 2.8-4 .3-7.5.6-7.6.8-.2.2-.6 3.4-1 7.3-.4 3.8-.8 7.4-.9 8 0 .6 5.7.9 15.9.9 19.3-.2 74-1.5 77.3-1.9 1.6-.2 2.2.2 1.8 1.1-.5 1.2 33.5 1.4 217.9 1.4 174.3 0 218.4-.3 218.3-1.3-.4-1.7 29.5-1.5 120.8.9 16.1.4 20.1.3 20.1-.8 0-.7.4-4.7.8-8.8l.7-7.5-8.9-.1c-8.9 0-22.7-1-27.3-1.8-1.4-.3-4.3-.7-6.5-1.1-8-1.1-22.7-5.5-30.1-9-32.1-14.8-47.5-44.5-47.7-92-.1-10.5.6-18.4 2.2-27.5.6-3 1.3-6.9 1.5-8.5.5-2.8 9.1-54.8 10.1-60.5.2-1.4.6-4.3 1-6.5.5-3.8 2-12.3 3-17.4.2-1.2.6-4.2.9-6.5.3-2.2 1.2-7.7 2-12.1.8-4.4 1.7-9.6 2-11.5.3-1.9 1-6.2 1.6-9.5.6-3.3 1.3-7.6 1.6-9.5.4-2.9 4.2-25.7 6-36.5.3-1.7.7-4.4 1-6.2.2-1.8 2.4-15.1 4.8-29.5 2.5-14.5 4.7-27.9 5-29.8 1-6 1.6-9.5 2.1-10.7.3-.9 33.3-1.2 141-1.1 77.4 0 140.9-.2 141.1-.5.5-.5.7-1.1 2.4-11.5 1.6-9.7 2.1-9.1 3.5 3.8.4 3.6.9 6.8 1.1 7.1.6 1.1 1.7 24.6 1.8 38.9 0 14.5-.8 30.7-2.2 41-1.4 11.1-1.9 10.5 7.7 10.5 9.3 0 8.4.7 9.6-7.9.3-2.1.7-5 .9-6.5.8-5.2 1.8-12.7 2.1-15.1.3-3.2 2.4-17.7 3-21 .2-1.4.6-4.3.9-6.5.4-4 2.4-18.7 3.1-23.5.2-1.4.7-5 1.1-8 .4-3 .8-5.7.9-6 .1-.3.5-3.4.9-7 .5-3.6 1-7.2 1.1-8 .2-1.4 1.1-7.4 2-14.5 1.2-9.6 1.7-13.2 2-14.5.2-.8.7-4 1-7 .6-5.6.8-7 2-15 1.2-8.2 1.4-9.5 2-14 .6-5 1.1-8.3 3.4-25 .6-4.1 1.3-9.5 1.7-12 .3-2.5.7-5.4.8-6.5.2-1.1.6-4.5 1-7.5s.9-6.6 1.1-8c.2-1.4.7-4.5 1-7 .6-4.6.8-6 2-14 1.2-8.1 1.4-9.4 2-15 .3-3 .8-6.6 1-8 .7-4 1.3-8.1 2-13.9.4-3 .8-6.1 1-7 .3-1.6 1.3-9 1.9-14.6.6-4.4 1.7-12.6 2.2-15.5.2-1.4.6-4.3.9-6.5.3-2.2.8-5.7 1.1-7.8.6-4.1.8-5.5 1.9-14.2.4-3.3.9-6.7 1-7.5.2-.9.6-4.3 1-7.5.4-3.3.9-6.9 1.1-8 .3-1.7 3.5-25 5-36 .2-1.7.6-4.1.9-5.5.3-1.4.7-5 1-8 .3-3 1-8 1.5-11s1.2-7.8 1.5-10.5c.3-2.8.7-6.1 1-7.5.8-5.2 1.5-10.7 2.1-15.5.3-2.8.7-5.7.9-6.5.2-.8.7-4 1-7 .3-3 1-8 1.5-11s1.2-8 1.5-11c.3-3 1-8 1.5-11s1.1-7.5 1.4-10c.3-2.5 1.1-8.2 1.7-12.6l1.2-8.1 3.9.1c2.2.1 4.1-.1 4.4-.6.3-.4.9-3.1 1.4-6 .5-2.9 1.1-6.7 1.4-8.3 1.1-6.8 4.8-29.2 5.3-32 .2-1.7.6-4.1.9-5.5 2.1-12.1 4.5-26.2 4.9-29.5.4-2.2 1.3-7.6 2-12 .8-4.4 1.7-9.4 1.9-11 .3-1.7.8-4.5 1.1-6.3.3-1.7.7-4.7 1-6.5.3-1.7.8-4.6 1.1-6.2.2-1.7.6-4.1.9-5.5.3-1.4.7-4 1-5.8 1.1-6.9 1.6-10.2 4-23.7 2.3-13.8 3.4-20.1 3.9-24 .4-2.5 1.7-10.4 2.2-13 .3-1.1.7-3.6 1-5.5.3-1.9 1.7-10 3-18 2.4-13.4 3.2-18.3 3.3-20.3.1-.4.5-.7.9-.7.8 0 19.2 18.3 23.2 23 1.2 1.4 3.4 3.8 4.9 5.5 1.5 1.6 4.7 5.7 7.1 9 2.5 3.3 4.8 6.2 5.1 6.5 1.1.9 13.9 20.8 13.9 21.6 0 .4.6 1.5 1.4 2.3 2.3 2.6 15.1 28.7 20 41 4.8 11.8 12.2 34.2 13.2 39.5.3 1.6.7 3.3 1 3.8.3.4.7 1.6.9 2.5 4.2 20 6.6 31.6 7 34.8.7 5.9 1.6 12.6 2.1 15.5.4 2.3.7 5.4 1.9 17.5.7 7.2 1.7 26.8 1.9 37l.2 10 8.7.1c7.2 0 8.7-.3 8.8-1.5 0-.9.2-2.5.4-3.6s.7-4.3 1-7c.4-2.8.8-6.1 1-7.5.6-4.1 4.3-29.8 5.5-38.6.6-4.4 1.2-8.9 1.4-10 .2-1 .7-4.4 1-7.4 1.2-9.1 1.6-12.5 2-14.5.5-2.8 1.4-9.1 2.1-14.5.4-2.5.8-5.6 1-7 .2-1.4.7-4.9 1-7.9.4-3 .8-6.2 1-7.2.2-.9.6-3.9 1-6.6.4-2.6.8-5.9 1-7.3.2-1.4.7-4.8 1.1-7.5.3-2.8.8-5.9 1-7 .2-1.1.6-4.5.9-7.5.4-3 .8-6.2 1-7 .2-.8.7-3.5 1-6 1-7.9 2.3-17.2 3-21 .2-1.4.7-5 1-8 .3-3 .8-6.6 1-8 .3-1.4.8-4.5 1.1-7 .3-2.5.7-5.4.9-6.5.8-5.1 2.5-17.8 4-29 .3-2.8.8-6.1 1.1-7.5.2-1.4 1.5-10.8 2.9-21 1.5-10.2 2.8-19.7 3-21.1.3-1.5.7-4.7 1-7 .3-2.4 1.5-10.7 2.6-18.4 1.1-7.7 2.2-15.8 2.5-18 .3-2.2 1.1-7.6 1.8-12.1l1.2-8.1-452.8-.2c-373.5-.2-452.8 0-452.6 1.1.4 1.8-24 1.6-107.3-.8l-19.6-.6-.7 8.2zm792.9 334.5c-.5 3.7-2.3 15.1-3 18.5-2.1 10.6-3 14.7-5 23-7.3 29.1-20.1 59.2-35.4 83.5l-6.9 11-128.7.3-128.8.2.8-5.2c.9-6.4 6-38.5 8-50.8.5-3.1 5.1-32.2 5.9-37 .3-1.9 1-5.8 1.5-8.5.5-2.8 1.2-7 1.6-9.5.7-5.1 1.2-8.1 2.5-16.5.6-3.3 1.2-7.4 1.5-9l.5-3.1h285.9l-.4 3.1z"/></svg>