<?xml version="1.0" standalone="no"?>
<!DOCTYPE svg PUBLIC "-//W3C//DTD SVG 20010904//EN"
 "http://www.w3.org/TR/2001/REC-SVG-20010904/DTD/svg10.dtd">
<svg version="1.0" xmlns="http://www.w3.org/2000/svg"
 width="700.000000pt" height="700.000000pt" viewBox="0 0 700.000000 700.000000"
 preserveAspectRatio="xMidYMid meet">
<g transform="translate(0.000000,700.000000) scale(0.100000,-0.100000)"
fill="#000000" stroke="none">
<path d="M3372 6699 c-35 -5 -95 -20 -135 -33 -93 -30 -2616 -1178 -2682
-1221 -65 -41 -154 -140 -193 -213 -48 -90 -66 -165 -66 -272 0 -168 61 -307
186 -426 71 -66 115 -90 436 -234 78 -36 142 -67 142 -71 0 -3 -78 -41 -172
-84 -299 -135 -342 -159 -417 -233 -103 -102 -151 -201 -173 -351 -20 -145 38
-329 138 -440 80 -89 148 -131 392 -241 127 -58 232 -107 232 -110 0 -3 -64
-34 -142 -70 -331 -148 -367 -168 -449 -250 -95 -94 -143 -188 -167 -321 -14
-81 -14 -97 0 -178 29 -162 123 -309 250 -394 82 -54 2640 -1212 2728 -1235
156 -41 326 -37 477 9 70 22 2583 1161 2669 1210 72 41 182 160 221 240 114
233 68 494 -120 679 -67 66 -120 95 -427 234 l-164 75 94 44 c52 24 158 72
235 108 171 78 246 127 307 203 157 195 180 448 61 662 -33 60 -125 158 -184
198 -25 17 -150 78 -278 136 -127 57 -227 107 -223 111 4 3 108 52 232 108
262 119 301 142 378 226 164 179 199 431 91 653 -36 73 -137 186 -207 231 -65
41 -2604 1195 -2684 1219 -125 39 -256 49 -386 31z m1473 -1158 c693 -315
1263 -576 1267 -580 5 -4 -565 -267 -1265 -585 l-1272 -579 -70 -1 c-65 0 -80
4 -205 61 -74 34 -502 228 -950 433 -448 204 -960 437 -1137 518 -178 81 -323
149 -323 152 0 3 67 35 148 72 81 37 629 286 1217 554 589 268 1095 498 1125
511 45 19 69 23 130 21 l75 -3 1260 -574z m-2340 -1966 c689 -314 743 -337
858 -355 104 -17 280 -8 375 19 40 12 390 165 777 341 388 176 709 320 715
320 9 0 856 -381 883 -397 5 -3 -564 -266 -1265 -585 l-1273 -579 -80 3 -80 3
-1262 575 c-695 316 -1259 578 -1255 582 4 4 203 97 442 207 l435 199 50 -23
c28 -12 334 -152 680 -310z m20 -1468 c358 -162 677 -304 710 -315 147 -49
346 -54 495 -12 41 12 392 166 780 342 388 176 710 321 716 321 16 0 884 -395
884 -403 0 -3 -568 -265 -1262 -580 l-1263 -575 -85 0 -85 0 -1262 575 c-695
316 -1263 577 -1263 580 0 3 199 96 442 207 l442 201 50 -22 c28 -13 344 -156
701 -319z"/>
</g>
</svg>
